#!OML:ASF F:\VICON\USERDATA\INSTALL\rory3\rory3.ASF
:FULLY-SPECIFIED
:DEGREES
53
root 0.34021633307716337 18.133602975830808 17.998158465715726 -2.8581624159438714 0.4926263504175217 -6.594286488519055
lfemur -19.916856997033285 1.6569385032514137 -12.27133141972489
ltibia 67.29863609111854
lfoot -2.577524435423463 -9.06743380679562
ltoes -5.903036568784094
rfemur -4.124890515679683 4.4955874007050785 33.66243079166365
rtibia 22.076770585531705
rfoot -15.353593478480509 -6.664491842082996
rtoes 5.5061157894050385
lowerback 10.678043312565748 0.4559572862576916 4.934736136547192
upperback 0.06576155808562198 1.523791499121248 2.553419644863565
thorax -5.908666591776525 0.6925086154830092 -0.3804735953174174
lowerneck -16.557069534985832 -3.111846369643703 -1.8492984950441966
upperneck 21.031862851603638 -4.113481739509696 1.7031665224724228
head 9.516653486844747 -1.8814878858806314 0.3430097192417532
lclavicle 2.9911140335612563e-16 5.5314561545095236e-17
lhumerus -30.657824384263595 1.5045322759347148 83.05664031028942
lradius 26.534948597275122
lwrist 6.959828724577968
lhand -29.157140854771768 21.277585322519432
lfingers 7.125020000000001
lthumb -2.488762618799808 51.317097936154255
rclavicle 2.9911140320660637e-16 5.5314561438080843e-17
rhumerus -32.09014921309574 -21.372096628336205 -75.45742927562712
rradius 25.400851379323804
rwrist 5.868359564242221
rhand -17.679578810446415 21.761519324647136
rfingers 7.125020000000001
rthumb 8.585635581150086 -8.09080566555122
54
root 0.3428542143789568 18.082203435574822 18.37116850482419 -2.606130627896077 -0.4224765447093883 -6.891450667345825
lfemur -23.419007225878154 2.518206621158889 -12.19347193044445
ltibia 64.36892440267113
lfoot -4.777023916657448 -6.2639935804622
ltoes -5.105634242593755
rfemur -2.9791325892305984 4.185899766919039 34.42532866314855
rtibia 23.596102714185935
rfoot -16.10186625905994 -6.452031093639377
rtoes 5.796574873746598
lowerback 10.754797802009351 0.870661076038835 5.447524806856559
upperback -0.013831773289529739 2.173831094467023 2.4727617376347713
thorax -5.967502285844892 0.9830885387189686 -0.950236185541063
lowerneck -16.59784149556829 -3.1536451981846048 -1.7880826592179107
upperneck 20.8596650641447 -4.245999311736845 1.7819057308010215
head 9.443745638546485 -1.9155877959855503 0.3391943852786055
lclavicle 2.991114033491312e-16 5.531456153968715e-17
lhumerus -31.803859208200265 2.7229458586002977 82.74110693679384
lradius 25.802716267913482
lwrist 7.481750912824789
lhand -28.330581469097243 22.938096156838977
lfingers 7.125020000000001
lthumb -1.7270987046593405 52.799608823052054
rclavicle 2.9911140321078186e-16 5.531456144068346e-17
rhumerus -30.888691391960478 -19.561905148729554 -76.56313653510148
rradius 26.771155139559617
rwrist 4.164769869927867
rhand -17.835481994131648 21.594367789281137
rfingers 7.125020000000001
rthumb 8.39972660623017 -8.304921291294683
55
root 0.3627845858415373 17.99189805983211 19.53372253553357 -2.2883147580832786 -1.0890368216966104 -6.891087938815221
lfemur -25.645987984835543 2.6249857865662376 -12.200931626712148
ltibia 58.84091080572008
lfoot -6.564117770857731 -1.7596190734118364
ltoes -6.865134937679416
rfemur -2.007739424144546 4.063908890656319 34.6394377926894
rtibia 25.81667311100651
rfoot -15.987651496428409 -6.102377373136935
rtoes 5.856810782313574
lowerback 10.794712545840405 1.2145927586654555 5.855601908384383
upperback -0.09836340131121692 2.6659806282949 2.3892730713594714
thorax -6.034870576369455 1.199872384929038 -1.4211745249664898
lowerneck -16.7069431288493 -3.199058011161516 -1.725384629978475
upperneck 20.603745149277202 -4.379031375406081 1.879496902894144
head 9.335826495651968 -1.9450483381906347 0.33797162878303755
lclavicle 2.991114033405811e-16 5.531456153313732e-17
lhumerus -32.826439210112184 4.021345997012603 82.40795379012194
lradius 24.95830761055326
lwrist 7.619293264292911
lhand -29.05572539381245 21.679896672746235
lfingers 7.125020000000001
lthumb -2.4289843971475307 51.636320589418624
rclavicle 2.9911140320773187e-16 5.531456143807542e-17
rhumerus -29.651818139098232 -18.062932139544877 -77.60508136273094
rradius 28.23238733550286
rwrist 2.4056989500967965
rhand -18.06138628198384 21.528352285606328
rfingers 7.125020000000001
rthumb 8.120863980665362 -8.366775095957449
56
root 0.3817755363193634 17.91930868855388 20.400432963782656 -1.9723092113716207 -1.982402867525062 -7.300951079487461
lfemur -27.415026865521803 1.961361842873771 -11.73076322837687
ltibia 51.15052086264936
lfoot -8.051969272381637 1.7670107126444599
ltoes -5.570714855134639
rfemur -0.5659800945416631 4.152366642209723 35.1323970746511
rtibia 27.366012964761758
rfoot -15.195631825309732 -5.917413401007651
rtoes 5.4572718769140725
lowerback 10.867360822136503 1.5477253193581701 6.388081231200377
upperback -0.20354630389459338 3.1131982293963807 2.3552337983242113
thorax -6.118334160989305 1.374639457568444 -1.77585089354499
lowerneck -16.779068153042985 -3.238100001091966 -1.6636853362137516
upperneck 20.38653295738198 -4.525789605313759 2.005138903182452
head 9.252130200661087 -1.9836370844080145 0.3502331828876377
lclavicle 2.991114033393045e-16 5.531456153205475e-17
lhumerus -33.776661346677166 5.542352829913348 81.78404109097086
lradius 24.030954328974232
lwrist 7.270967734383734
lhand -29.5467615458252 20.98426967939852
lfingers 7.125020000000001
lthumb -2.941325052590108 50.71798754552525
rclavicle 2.9911140320526634e-16 5.531456143613833e-17
rhumerus -28.276138175250466 -16.955861247698913 -78.27103465695501
rradius 29.358133423348693
rwrist 0.9636336549230755
rhand -18.258994386934372 22.087422632412146
rfingers 7.125020000000001
rthumb 7.9531131211902135 -7.6971513805078375
57
root 0.4075725584862557 17.86399889230973 21.422178517441953 -1.5760995752346705 -2.673269679255236 -7.432250088240758
lfemur -27.973305138575665 0.4240665657913194 -11.121751284047573
ltibia 41.28535172878866
lfoot -8.141365068950787 4.752948960284449
ltoes -4.349809831415847
rfemur 1.2358380333555363 4.277165935723407 35.25119122674224
rtibia 27.999704817354864
rfoot -13.738004943384531 -6.043686473684855
rtoes 4.852861383909607
lowerback 10.68324135302803 1.838743311967599 6.670888912559653
upperback -0.2679884968081548 3.451196500337552 2.302957515075532
thorax -6.081630662743319 1.5252958375580716 -2.0822587709221603
lowerneck -16.868723052410832 -3.2817144853152875 -1.6126555166309875
upperneck 20.161980599718884 -4.632523412446822 2.0753719989161223
head 9.152922543677347 -2.0095336524440333 0.34592913812132564
lclavicle 2.99111403331244e-16 5.531456152636181e-17
lhumerus -34.528374708864085 7.427261818916041 80.97730279625152
lradius 22.829699901144412
lwrist 6.322597882903055
lhand -30.40153733772933 18.316853944790587
lfingers 7.125020000000001
lthumb -3.6913233398336995 48.21694014219117
rclavicle 2.9911140320915e-16 5.5314561439047266e-17
rhumerus -27.108992878204283 -16.337617294967483 -78.53208371778753
rradius 30.157031945460425
rwrist 0.16256893574772358
rhand -18.36071576917444 22.752722486321623
rfingers 7.125020000000001
rthumb 7.918982918925008 -6.882452045551617
